<svg class="svg-icon" style="width: 1em;height: 1em;vertical-align: middle;fill: currentColor;overflow: hidden;" viewBox="0 0 1024 1024" version="1.1" xmlns="http://www.w3.org/2000/svg"><path d="M512 1024c-56.096-89.344-97.184-137.728-123.296-145.184C201.216 825.248 64 652.672 64 448 64 200.576 264.576 0 512 0s448 200.576 448 448c0 203.168-135.232 374.72-320.608 429.632-26.88 7.968-69.376 56.768-127.392 146.368z m120-896l-240 0.096c-46.272 0-85.824 11.84-118.72 35.104S224 214.72 224 248.096v335.968c0 32.576 15.616 60.288 47.04 83.328 31.36 22.912 69.568 35.104 114.56 36.352l-79.84 75.68a10.912 10.912 0 0 0-3.008 13.12 11.328 11.328 0 0 0 11.328 7.456h395.84c5.536 0 9.312-2.528 11.328-7.488a11.072 11.072 0 0 0-3.008-13.088l-79.84-75.68c44.992-1.28 83.2-13.344 114.56-36.352 31.424-23.04 47.04-50.816 47.04-83.328V248.032c0-33.28-16.384-61.568-49.28-84.928C717.824 139.68 678.176 128 632 128zM289.664 602.464a57.344 57.344 0 0 1-17.568-42.336c0-16.448 5.792-30.56 17.568-42.336a58.272 58.272 0 0 1 42.304-17.536 57.6 57.6 0 0 1 42.304 17.536c11.584 11.776 17.536 25.888 17.536 42.336 0 16.448-5.76 30.56-17.536 42.336a57.92 57.92 0 0 1-42.304 17.536 57.6 57.6 0 0 1-42.304-17.536z m198.368-186.368H284.032v-192h204v192z m263.776 0h-215.936v-192h215.936v192zM649.6 602.464a57.664 57.664 0 0 1-17.568-42.336c0-16.448 5.792-30.56 17.568-42.336a58.272 58.272 0 0 1 42.304-17.536 57.6 57.6 0 0 1 42.304 17.536c11.584 11.776 17.536 25.888 17.536 42.336 0 16.448-5.76 30.56-17.536 42.336a57.92 57.92 0 0 1-42.304 17.536 57.6 57.6 0 0 1-42.304-17.536z"  /></svg>